<?xml version="1.0" encoding="UTF-8" standalone="no"?>
<svg
   xmlns:dc="http://purl.org/dc/elements/1.1/"
   xmlns:cc="http://creativecommons.org/ns#"
   xmlns:rdf="http://www.w3.org/1999/02/22-rdf-syntax-ns#"
   xmlns:svg="http://www.w3.org/2000/svg"
   xmlns="http://www.w3.org/2000/svg"
   xmlns:sodipodi="http://sodipodi.sourceforge.net/DTD/sodipodi-0.dtd"
   xmlns:inkscape="http://www.inkscape.org/namespaces/inkscape"
   width="1792"
   height="1792"
   viewBox="0 0 1792 1792"
   id="svg3404"
   version="1.1"
   inkscape:version="0.91 r13725"
   sodipodi:docname="track_scrubber_show_icon.svg">
  <metadata
     id="metadata3412">
    <rdf:RDF>
      <cc:Work
         rdf:about="">
        <dc:format>image/svg+xml</dc:format>
        <dc:type
           rdf:resource="http://purl.org/dc/dcmitype/StillImage" />
      </cc:Work>
    </rdf:RDF>
  </metadata>
  <defs
     id="defs3410" />
  <sodipodi:namedview
     pagecolor="#ffffff"
     bordercolor="#666666"
     borderopacity="1"
     objecttolerance="10"
     gridtolerance="10"
     guidetolerance="10"
     inkscape:pageopacity="0"
     inkscape:pageshadow="2"
     inkscape:window-width="1600"
     inkscape:window-height="731"
     id="namedview3408"
     showgrid="false"
     inkscape:zoom="0.13169643"
     inkscape:cx="-296.13559"
     inkscape:cy="896"
     inkscape:window-x="0"
     inkscape:window-y="27"
     inkscape:window-maximized="1"
     inkscape:current-layer="svg3404" />
  <path
     d="m 1079.734,773.27249 0,52.31812 q 0,10.62712 -7.7659,18.39309 -7.766,7.76597 -18.3931,7.76597 l -183.11346,0 0,183.11343 q 0,10.6271 -7.76597,18.3931 -7.76597,7.766 -18.39309,7.766 l -52.31812,0 q -10.62712,0 -18.39309,-7.766 -7.76597,-7.766 -7.76597,-18.3931 l 0,-183.11343 -183.11343,0 q -10.62712,0 -18.39309,-7.76597 -7.76597,-7.76597 -7.76597,-18.39309 l 0,-52.31812 q 0,-10.62712 7.76597,-18.39309 7.76597,-7.76597 18.39309,-7.76597 l 183.11343,0 0,-183.11343 q 0,-10.62712 7.76597,-18.39309 7.76597,-7.76597 18.39309,-7.76597 l 52.31812,0 q 10.62712,0 18.39309,7.76597 7.76597,7.76597 7.76597,18.39309 l 0,183.11343 183.11346,0 q 10.6271,0 18.3931,7.76597 7.7659,7.76597 7.7659,18.39309 z m 104.6363,26.15906 q 0,-151.23207 -107.4974,-258.72947 -107.49741,-107.49739 -258.72948,-107.49739 -151.23207,0 -258.72947,107.49739 -107.49739,107.4974 -107.49739,258.72947 0,151.23207 107.49739,258.72945 107.4974,107.4974 258.72947,107.4974 151.23207,0 258.72948,-107.4974 107.4974,-107.49738 107.4974,-258.72945 z m 418.545,680.13555 q 0,43.326 -30.6552,73.9811 -30.6551,30.6552 -73.9811,30.6552 -44.1434,0 -73.5723,-31.0639 l -280.3925,-279.575 q -146.32724,101.3664 -326.17078,101.3664 -116.89831,0 -223.57823,-45.3696 -106.67992,-45.3696 -183.9309,-122.6206 -77.25098,-77.251 -122.6206,-183.9309 -45.36962,-106.67995 -45.36962,-223.57825 0,-116.89831 45.36962,-223.57823 45.36962,-106.67992 122.6206,-183.9309 77.25098,-77.25098 183.9309,-122.6206 106.67992,-45.36962 223.57823,-45.36962 116.8983,0 223.57818,45.36962 106.68,45.36962 183.931,122.6206 77.251,77.25098 122.6206,183.9309 45.3696,106.67992 45.3696,223.57823 0,179.84354 -101.3664,326.17075 l 280.3925,280.3925 q 30.2464,30.2464 30.2464,73.5723 z"
     id="path3406"
     style="fill:#dedede;fill-opacity:1"
     inkscape:connector-curvature="0" />
</svg>
