<?xml version="1.0" encoding="UTF-8" standalone="no"?>
<svg
   xmlns:dc="http://purl.org/dc/elements/1.1/"
   xmlns:cc="http://creativecommons.org/ns#"
   xmlns:rdf="http://www.w3.org/1999/02/22-rdf-syntax-ns#"
   xmlns:svg="http://www.w3.org/2000/svg"
   xmlns="http://www.w3.org/2000/svg"
   xmlns:sodipodi="http://sodipodi.sourceforge.net/DTD/sodipodi-0.dtd"
   xmlns:inkscape="http://www.inkscape.org/namespaces/inkscape"
   width="1792"
   height="1792"
   viewBox="0 0 1792 1792"
   id="svg3404"
   version="1.1"
   inkscape:version="0.91 r13725"
   sodipodi:docname="track_scrubber_show_icon.svg">
  <metadata
     id="metadata3412">
    <rdf:RDF>
      <cc:Work
         rdf:about="">
        <dc:format>image/svg+xml</dc:format>
        <dc:type
           rdf:resource="http://purl.org/dc/dcmitype/StillImage" />
      </cc:Work>
    </rdf:RDF>
  </metadata>
  <defs
     id="defs3410" />
  <sodipodi:namedview
     pagecolor="#ffffff"
     bordercolor="#666666"
     borderopacity="1"
     objecttolerance="10"
     gridtolerance="10"
     guidetolerance="10"
     inkscape:pageopacity="0"
     inkscape:pageshadow="2"
     inkscape:window-width="737"
     inkscape:window-height="593"
     id="namedview3408"
     showgrid="false"
     inkscape:zoom="0.13169643"
     inkscape:cx="1848.9492"
     inkscape:cy="896"
     inkscape:window-x="38"
     inkscape:window-y="125"
     inkscape:window-maximized="0"
     inkscape:current-layer="svg3404" />
  <path
     d="m 1036.5293,741.29335 0,51.44198 q 0,10.44915 -7.6358,18.08507 -7.6359,7.63592 -18.0851,7.63592 l -180.04699,0 0,180.0469 q 0,10.44918 -7.63592,18.08508 -7.63592,7.6359 -18.08507,7.6359 l -51.44198,0 q -10.44915,0 -18.08507,-7.6359 -7.63592,-7.6359 -7.63592,-18.08508 l 0,-180.0469 -180.04694,0 q -10.44915,0 -18.08507,-7.63592 -7.63592,-7.63592 -7.63592,-18.08507 l 0,-51.44198 q 0,-10.44915 7.63592,-18.08507 7.63592,-7.63592 18.08507,-7.63592 l 180.04694,0 0,-180.04694 q 0,-10.44915 7.63592,-18.08507 7.63592,-7.63592 18.08507,-7.63592 l 51.44198,0 q 10.44915,0 18.08507,7.63592 7.63592,7.63592 7.63592,18.08507 l 0,180.04694 180.04699,0 q 10.4492,0 18.0851,7.63592 7.6358,7.63592 7.6358,18.08507 z m 102.8841,25.72099 q 0,-148.69947 -105.6972,-254.39668 -105.69729,-105.69719 -254.39677,-105.69719 -148.69947,0 -254.39668,105.69719 -105.69719,105.69721 -105.69719,254.39668 0,148.69948 105.69719,254.39666 105.69721,105.6972 254.39668,105.6972 148.69948,0 254.39677,-105.6972 105.6972,-105.69718 105.6972,-254.39666 z M 1550.9492,1435.76 q 0,42.6005 -30.1418,72.7422 -30.1417,30.1418 -72.7422,30.1418 -43.4041,0 -72.3402,-30.5437 l -275.6969,-274.8931 q -143.87686,99.6689 -320.70867,99.6689 -114.94068,0 -219.8341,-44.6098 -104.89341,-44.6098 -180.85071,-120.5672 -75.95731,-75.9573 -120.56715,-180.85068 -44.60984,-104.89341 -44.60984,-219.83408 0,-114.94068 44.60984,-219.8341 44.60984,-104.89341 120.56715,-180.85071 75.9573,-75.95731 180.85071,-120.56715 104.89342,-44.60984 219.8341,-44.60984 114.94067,0 219.83409,44.60984 104.89348,44.60984 180.85078,120.56715 75.9574,75.9573 120.5672,180.85071 44.6098,104.89342 44.6098,219.8341 0,176.83181 -99.6689,320.70856 l 275.697,275.6969 q 29.7398,29.7399 29.7398,72.3402 z"
     id="path3406"
     style="fill:#dedede;fill-opacity:1"
     inkscape:connector-curvature="0" />
</svg>
