<?xml version="1.0" encoding="UTF-8" standalone="no"?>
<svg
   xmlns:dc="http://purl.org/dc/elements/1.1/"
   xmlns:cc="http://creativecommons.org/ns#"
   xmlns:rdf="http://www.w3.org/1999/02/22-rdf-syntax-ns#"
   xmlns:svg="http://www.w3.org/2000/svg"
   xmlns="http://www.w3.org/2000/svg"
   xmlns:sodipodi="http://sodipodi.sourceforge.net/DTD/sodipodi-0.dtd"
   xmlns:inkscape="http://www.inkscape.org/namespaces/inkscape"
   width="1792"
   height="1792"
   viewBox="0 0 1792 1792"
   id="svg3394"
   version="1.1"
   inkscape:version="0.91 r13725"
   sodipodi:docname="track_scrubber_hide_icon.svg">
  <metadata
     id="metadata3402">
    <rdf:RDF>
      <cc:Work
         rdf:about="">
        <dc:format>image/svg+xml</dc:format>
        <dc:type
           rdf:resource="http://purl.org/dc/dcmitype/StillImage" />
      </cc:Work>
    </rdf:RDF>
  </metadata>
  <defs
     id="defs3400" />
  <sodipodi:namedview
     pagecolor="#ffffff"
     bordercolor="#666666"
     borderopacity="1"
     objecttolerance="10"
     gridtolerance="10"
     guidetolerance="10"
     inkscape:pageopacity="0"
     inkscape:pageshadow="2"
     inkscape:window-width="783"
     inkscape:window-height="565"
     id="namedview3398"
     showgrid="false"
     inkscape:zoom="0.20982143"
     inkscape:cx="937.48827"
     inkscape:cy="896"
     inkscape:window-x="784"
     inkscape:window-y="27"
     inkscape:window-maximized="0"
     inkscape:current-layer="svg3394" />
  <path
     d="m 1021.6432,748.97225 0,50.97001 q 0,10.35327 -7.5137,17.91914 -7.5137,7.56586 -17.79563,7.56586 l -455.5679,0 q -10.28192,0 -17.79562,-7.56586 -7.51372,-7.56587 -7.51372,-17.91914 l 0,-50.97001 q 0,-10.35328 7.51372,-17.91914 7.5137,-7.56586 17.79562,-7.56586 l 455.5679,0 q 10.28193,0 17.79563,7.56586 7.5137,7.56586 7.5137,17.91914 z m 101.2373,25.485 q 0,-147.33516 -104.0055,-252.06258 -104.00552,-104.72742 -250.32508,-104.72742 -146.31955,0 -250.32508,104.72742 -104.00552,104.72742 -104.00552,252.06258 0,147.33517 104.00552,252.06265 104.00553,104.7275 250.32508,104.7275 146.31956,0 250.32508,-104.7275 104.0055,-104.72748 104.0055,-252.06265 z m 404.9492,662.61015 q 0,42.2095 -29.6593,72.0748 -29.6594,29.8651 -71.5779,29.8651 -42.7096,0 -71.1826,-30.2634 l -271.2843,-272.371 q -141.57405,98.7544 -315.57568,98.7544 -113.10107,0 -216.31567,-44.2005 -103.21461,-44.2006 -177.95621,-119.461 -74.74161,-75.2604 -118.63748,-179.19136 -43.89587,-103.93109 -43.89587,-217.81719 0,-113.8861 43.89587,-217.81711 43.89587,-103.93102 118.63748,-179.19142 74.7416,-75.26039 177.95621,-119.46094 103.2146,-44.20055 216.31567,-44.20055 113.10107,0 216.31562,44.20055 103.21456,44.20055 177.95616,119.46094 74.7417,75.2604 118.6375,179.19142 43.8959,103.93101 43.8959,217.81711 0,175.2094 -98.0736,317.76625 l 271.2843,273.1673 q 29.2639,29.4671 29.2639,71.6766 z"
     id="path3396"
     style="fill:#dedede;fill-opacity:1"
     inkscape:connector-curvature="0" />
</svg>
